<svg xmlns="http://www.w3.org/2000/svg" xmlns:xlink="http://www.w3.org/1999/xlink" width="500" zoomAndPan="magnify" viewBox="0 0 375 374.999991" height="500" preserveAspectRatio="xMidYMid meet" version="1.0"><defs><g/><clipPath id="7e07219ac6"><path d="M 305.589844 163.75 L 369.339844 163.75 L 369.339844 223 L 305.589844 223 Z M 305.589844 163.75 " clip-rule="nonzero"/></clipPath></defs><g clip-path="url(#7e07219ac6)"><path fill="#000000" d="M 369.335938 187.261719 C 369.335938 187.078125 369.328125 186.90625 369.316406 186.769531 L 369.316406 179.804688 C 369.316406 179.800781 369.316406 179.796875 369.316406 179.792969 C 369.316406 179.78125 369.3125 179.765625 369.3125 179.753906 C 369.3125 179.730469 369.308594 179.703125 369.308594 179.679688 C 369.304688 179.667969 369.304688 179.65625 369.300781 179.644531 C 369.296875 179.617188 369.292969 179.589844 369.285156 179.5625 C 369.28125 179.554688 369.28125 179.542969 369.277344 179.535156 C 369.265625 179.496094 369.253906 179.457031 369.238281 179.417969 L 362.957031 164.359375 C 362.804688 163.996094 362.449219 163.757812 362.050781 163.757812 L 312.859375 163.757812 C 312.464844 163.757812 312.105469 163.996094 311.953125 164.359375 L 305.675781 179.421875 C 305.671875 179.421875 305.671875 179.425781 305.671875 179.429688 C 305.65625 179.464844 305.644531 179.5 305.632812 179.535156 C 305.632812 179.542969 305.628906 179.554688 305.625 179.5625 C 305.621094 179.589844 305.613281 179.617188 305.609375 179.644531 C 305.609375 179.65625 305.605469 179.667969 305.605469 179.679688 C 305.601562 179.703125 305.597656 179.730469 305.597656 179.753906 C 305.597656 179.765625 305.597656 179.78125 305.597656 179.792969 C 305.597656 179.796875 305.59375 179.800781 305.59375 179.804688 L 305.59375 187.089844 C 305.59375 187.164062 305.589844 187.234375 305.589844 187.304688 C 305.589844 189.613281 307.496094 192.503906 310.324219 193.433594 L 310.324219 220.441406 C 310.324219 221.847656 311.472656 222.992188 312.878906 222.992188 L 362.046875 222.992188 C 363.453125 222.992188 364.601562 221.847656 364.601562 220.441406 L 364.601562 193.386719 C 367.464844 192.449219 369.335938 189.605469 369.335938 187.261719 Z M 313.515625 165.71875 L 361.394531 165.71875 L 366.859375 178.824219 L 308.050781 178.824219 Z M 330.613281 221.027344 L 330.613281 202.074219 C 330.613281 201.757812 330.882812 201.488281 331.203125 201.488281 L 343.726562 201.488281 C 344.042969 201.488281 344.3125 201.757812 344.3125 202.074219 L 344.3125 221.027344 Z M 362.636719 220.441406 C 362.636719 220.757812 362.367188 221.027344 362.046875 221.027344 L 346.277344 221.027344 L 346.277344 202.074219 C 346.277344 200.667969 345.132812 199.527344 343.726562 199.527344 L 331.203125 199.527344 C 329.792969 199.527344 328.648438 200.667969 328.648438 202.074219 L 328.648438 221.027344 L 312.878906 221.027344 C 312.558594 221.027344 312.289062 220.757812 312.289062 220.441406 L 312.289062 193.746094 C 312.34375 193.742188 312.398438 193.738281 312.453125 193.738281 C 312.519531 193.738281 312.589844 193.734375 312.660156 193.730469 C 312.71875 193.726562 312.777344 193.722656 312.835938 193.714844 C 312.914062 193.707031 312.992188 193.703125 313.066406 193.691406 C 313.117188 193.6875 313.167969 193.679688 313.214844 193.671875 C 313.300781 193.65625 313.386719 193.644531 313.472656 193.628906 C 313.511719 193.621094 313.546875 193.613281 313.585938 193.605469 C 313.683594 193.585938 313.777344 193.566406 313.871094 193.539062 C 313.898438 193.535156 313.925781 193.527344 313.949219 193.519531 C 314.054688 193.492188 314.160156 193.460938 314.265625 193.429688 C 314.28125 193.425781 314.292969 193.417969 314.308594 193.414062 C 314.421875 193.378906 314.539062 193.339844 314.652344 193.296875 C 314.65625 193.292969 314.660156 193.292969 314.660156 193.292969 C 315.539062 192.957031 316.355469 192.445312 317.035156 191.792969 C 317.046875 191.78125 317.054688 191.773438 317.066406 191.761719 C 317.152344 191.679688 317.238281 191.59375 317.320312 191.503906 C 317.351562 191.472656 317.378906 191.4375 317.410156 191.402344 C 317.472656 191.335938 317.53125 191.269531 317.589844 191.199219 C 317.675781 191.097656 317.757812 190.988281 317.839844 190.878906 C 319.261719 192.714844 321.679688 193.84375 324.265625 193.855469 C 324.277344 193.855469 324.289062 193.855469 324.300781 193.855469 C 325.933594 193.855469 327.496094 193.410156 328.789062 192.625 C 329.566406 192.152344 330.242188 191.554688 330.777344 190.859375 C 330.867188 190.976562 330.964844 191.089844 331.0625 191.203125 C 332.535156 192.871094 334.855469 193.878906 337.320312 193.878906 C 337.339844 193.878906 337.355469 193.878906 337.375 193.878906 C 339.335938 193.867188 341.203125 193.21875 342.621094 192.105469 C 343.089844 191.738281 343.515625 191.316406 343.871094 190.851562 C 345.316406 192.71875 347.773438 193.855469 350.398438 193.855469 C 350.425781 193.855469 350.449219 193.855469 350.476562 193.855469 C 353.085938 193.832031 355.523438 192.683594 356.949219 190.820312 C 358.246094 192.589844 360.414062 193.703125 362.613281 193.703125 C 362.621094 193.703125 362.628906 193.703125 362.636719 193.703125 Z M 363.433594 191.664062 C 363.195312 191.710938 362.945312 191.734375 362.691406 191.738281 C 360.96875 191.765625 359.269531 190.851562 358.355469 189.398438 C 358.054688 188.921875 357.535156 188.632812 356.96875 188.628906 C 356.964844 188.628906 356.957031 188.628906 356.953125 188.628906 C 356.394531 188.628906 355.882812 188.902344 355.574219 189.367188 C 354.558594 190.90625 352.597656 191.875 350.457031 191.894531 C 350.4375 191.894531 350.417969 191.894531 350.398438 191.894531 C 348.257812 191.894531 346.289062 190.945312 345.25 189.40625 C 344.941406 188.949219 344.425781 188.671875 343.871094 188.671875 C 343.316406 188.675781 342.800781 188.949219 342.492188 189.410156 C 341.457031 190.945312 339.492188 191.90625 337.363281 191.917969 C 337.347656 191.917969 337.335938 191.917969 337.320312 191.917969 C 335.175781 191.917969 333.199219 190.960938 332.15625 189.417969 C 331.925781 189.070312 331.578125 188.832031 331.183594 188.730469 C 331.050781 188.699219 330.917969 188.683594 330.777344 188.683594 C 330.777344 188.683594 330.777344 188.683594 330.773438 188.683594 C 330.566406 188.683594 330.363281 188.722656 330.175781 188.796875 C 329.859375 188.917969 329.585938 189.132812 329.394531 189.421875 C 328.625 190.566406 327.339844 191.386719 325.847656 191.722656 C 325.351562 191.835938 324.832031 191.894531 324.300781 191.894531 C 324.292969 191.894531 324.28125 191.894531 324.273438 191.894531 C 322.160156 191.886719 320.21875 190.9375 319.207031 189.417969 C 318.894531 188.953125 318.367188 188.679688 317.808594 188.6875 C 317.246094 188.695312 316.726562 188.984375 316.429688 189.460938 C 315.542969 190.875 313.910156 191.78125 312.261719 191.78125 C 312.25 191.78125 312.238281 191.78125 312.226562 191.78125 C 312.15625 191.78125 312.085938 191.777344 312.011719 191.773438 C 311.941406 191.769531 311.867188 191.765625 311.796875 191.757812 C 311.691406 191.746094 311.585938 191.730469 311.484375 191.710938 C 309.085938 191.273438 307.554688 188.808594 307.554688 187.304688 C 307.554688 187.253906 307.558594 187.203125 307.558594 187.152344 C 307.558594 187.136719 307.558594 187.125 307.558594 187.113281 L 307.558594 180.785156 L 367.351562 180.785156 L 367.351562 186.808594 C 367.351562 186.832031 367.351562 186.859375 367.355469 186.882812 C 367.363281 186.988281 367.371094 187.128906 367.371094 187.261719 C 367.371094 188.792969 365.875 191.207031 363.433594 191.664062 Z M 363.433594 191.664062 " fill-opacity="1" fill-rule="nonzero"/></g><g fill="#000000" fill-opacity="1"><g transform="translate(5.75977, 206.205337)"><g><path d="M 17.25 0 L 14.546875 0 L 14.546875 -21.234375 L 10.046875 -8.09375 L 8.125 -8.09375 L 3.640625 -21.234375 L 3.640625 0 L 0.953125 0 L 0.953125 -25.484375 L 4.4375 -25.484375 L 9.078125 -12.171875 L 13.765625 -25.484375 L 17.25 -25.484375 Z M 17.25 0 "/></g></g></g><g fill="#000000" fill-opacity="1"><g transform="translate(27.593573, 206.205337)"><g><path d="M -0.046875 -4.921875 C -0.046875 -6.066406 0.238281 -7.023438 0.8125 -7.796875 C 1.394531 -8.578125 2.148438 -9.191406 3.078125 -9.640625 C 4.003906 -10.085938 5.070312 -10.410156 6.28125 -10.609375 C 7.488281 -10.816406 8.71875 -10.921875 9.96875 -10.921875 C 10.445312 -10.921875 10.878906 -10.910156 11.265625 -10.890625 C 11.648438 -10.878906 12.015625 -10.859375 12.359375 -10.828125 C 12.703125 -10.804688 13.046875 -10.773438 13.390625 -10.734375 C 13.742188 -10.703125 14.128906 -10.660156 14.546875 -10.609375 L 14.546875 -11.921875 C 14.546875 -12.804688 14.351562 -13.535156 13.96875 -14.109375 C 13.59375 -14.679688 13.125 -15.128906 12.5625 -15.453125 C 12 -15.785156 11.410156 -16.019531 10.796875 -16.15625 C 10.191406 -16.300781 9.671875 -16.375 9.234375 -16.375 C 7.878906 -16.375 6.628906 -16.191406 5.484375 -15.828125 C 4.335938 -15.460938 3.269531 -14.972656 2.28125 -14.359375 L 1.078125 -16.375 C 2.171875 -17.03125 3.394531 -17.570312 4.75 -18 C 6.113281 -18.425781 7.609375 -18.640625 9.234375 -18.640625 C 10.222656 -18.640625 11.195312 -18.507812 12.15625 -18.25 C 13.113281 -18 13.972656 -17.609375 14.734375 -17.078125 C 15.492188 -16.554688 16.101562 -15.863281 16.5625 -15 C 17.019531 -14.144531 17.25 -13.117188 17.25 -11.921875 L 17.25 0 L 14.546875 0 L 14.546875 -3.046875 C 14.078125 -2.460938 13.546875 -1.945312 12.953125 -1.5 C 12.367188 -1.0625 11.75 -0.703125 11.09375 -0.421875 C 10.445312 -0.140625 9.796875 0.0703125 9.140625 0.21875 C 8.492188 0.375 7.875 0.453125 7.28125 0.453125 C 4.875 0.453125 3.050781 -0.0078125 1.8125 -0.9375 C 0.570312 -1.863281 -0.046875 -3.191406 -0.046875 -4.921875 Z M 7.28125 -1.84375 C 8.40625 -1.84375 9.410156 -2.003906 10.296875 -2.328125 C 11.191406 -2.660156 11.953125 -3.070312 12.578125 -3.5625 C 13.203125 -4.0625 13.6875 -4.59375 14.03125 -5.15625 C 14.375 -5.71875 14.546875 -6.226562 14.546875 -6.6875 L 14.546875 -8.40625 C 13.679688 -8.53125 12.847656 -8.597656 12.046875 -8.609375 C 11.242188 -8.628906 10.550781 -8.640625 9.96875 -8.640625 C 9 -8.640625 8.066406 -8.570312 7.171875 -8.4375 C 6.285156 -8.3125 5.507812 -8.097656 4.84375 -7.796875 C 4.175781 -7.503906 3.640625 -7.125 3.234375 -6.65625 C 2.835938 -6.1875 2.640625 -5.609375 2.640625 -4.921875 C 2.640625 -4.148438 3.015625 -3.441406 3.765625 -2.796875 C 4.515625 -2.160156 5.6875 -1.84375 7.28125 -1.84375 Z M 7.28125 -1.84375 "/></g></g></g><g fill="#000000" fill-opacity="1"><g transform="translate(49.427377, 206.205337)"><g><path d="M 17.203125 -15.640625 C 16.242188 -16.128906 15.097656 -16.375 13.765625 -16.375 C 12.671875 -16.375 11.691406 -16.140625 10.828125 -15.671875 C 9.972656 -15.203125 9.242188 -14.582031 8.640625 -13.8125 C 8.046875 -13.050781 7.585938 -12.179688 7.265625 -11.203125 C 6.953125 -10.222656 6.796875 -9.210938 6.796875 -8.171875 L 6.796875 -2.28125 L 10.921875 -2.28125 L 10.921875 0 L 0 0 L 0 -2.28125 L 4.125 -2.28125 L 4.125 -15.921875 L 0 -15.921875 L 0 -18.203125 L 6.796875 -18.203125 L 6.796875 -13.640625 C 8.023438 -16.972656 10.347656 -18.640625 13.765625 -18.640625 C 14.691406 -18.640625 15.492188 -18.578125 16.171875 -18.453125 C 16.859375 -18.335938 17.5 -18.128906 18.09375 -17.828125 Z M 17.203125 -15.640625 "/></g></g></g><g fill="#000000" fill-opacity="1"><g transform="translate(71.26118, 206.205337)"><g><path d="M 18.171875 0 L 14.359375 0 L 6.921875 -8.171875 L 3.640625 -5.15625 L 3.640625 0 L 0.953125 0 L 0.953125 -25.484375 L 3.640625 -25.484375 L 3.640625 -8.40625 L 14 -18.203125 L 17.828125 -18.203125 L 8.71875 -9.84375 Z M 18.171875 0 "/></g></g></g><g fill="#000000" fill-opacity="1"><g transform="translate(93.094984, 206.205337)"><g><path d="M 2.671875 -8.171875 C 2.867188 -6.242188 3.570312 -4.707031 4.78125 -3.5625 C 6 -2.414062 7.578125 -1.84375 9.515625 -1.84375 C 10.878906 -1.84375 12.09375 -2.117188 13.15625 -2.671875 C 14.226562 -3.234375 15.03125 -3.929688 15.5625 -4.765625 L 17.4375 -3.484375 C 16.53125 -2.203125 15.441406 -1.222656 14.171875 -0.546875 C 12.910156 0.117188 11.359375 0.453125 9.515625 0.453125 C 8.109375 0.453125 6.816406 0.21875 5.640625 -0.25 C 4.472656 -0.71875 3.460938 -1.375 2.609375 -2.21875 C 1.753906 -3.0625 1.09375 -4.0625 0.625 -5.21875 C 0.15625 -6.375 -0.078125 -7.660156 -0.078125 -9.078125 C -0.078125 -10.460938 0.128906 -11.738281 0.546875 -12.90625 C 0.972656 -14.070312 1.585938 -15.078125 2.390625 -15.921875 C 3.191406 -16.773438 4.164062 -17.441406 5.3125 -17.921875 C 6.457031 -18.398438 7.738281 -18.640625 9.15625 -18.640625 C 10.707031 -18.640625 12.0625 -18.378906 13.21875 -17.859375 C 14.382812 -17.335938 15.351562 -16.613281 16.125 -15.6875 C 16.894531 -14.769531 17.46875 -13.671875 17.84375 -12.390625 C 18.21875 -11.117188 18.40625 -9.710938 18.40625 -8.171875 Z M 15.5625 -10.453125 C 15.269531 -12.441406 14.550781 -13.925781 13.40625 -14.90625 C 12.257812 -15.882812 10.84375 -16.375 9.15625 -16.375 C 8.300781 -16.375 7.507812 -16.234375 6.78125 -15.953125 C 6.050781 -15.671875 5.40625 -15.269531 4.84375 -14.75 C 4.28125 -14.226562 3.8125 -13.597656 3.4375 -12.859375 C 3.0625 -12.128906 2.820312 -11.328125 2.71875 -10.453125 Z M 15.5625 -10.453125 "/></g></g></g><g fill="#000000" fill-opacity="1"><g transform="translate(114.928787, 206.205337)"><g><path d="M 18.40625 -5.796875 C 18.195312 -3.890625 17.441406 -2.367188 16.140625 -1.234375 C 14.847656 -0.109375 13.234375 0.453125 11.296875 0.453125 C 10.222656 0.453125 9.242188 0.273438 8.359375 -0.078125 C 7.472656 -0.429688 6.71875 -0.921875 6.09375 -1.546875 C 5.46875 -2.171875 4.984375 -2.921875 4.640625 -3.796875 C 4.296875 -4.679688 4.125 -5.644531 4.125 -6.6875 L 4.125 -15.921875 L 0 -15.921875 L 0 -18.203125 L 4.125 -18.203125 L 4.125 -25.484375 L 6.796875 -25.484375 L 6.796875 -18.203125 L 14.546875 -18.203125 L 14.546875 -15.921875 L 6.796875 -15.921875 L 6.796875 -6.6875 C 6.796875 -6.019531 6.898438 -5.390625 7.109375 -4.796875 C 7.328125 -4.210938 7.628906 -3.695312 8.015625 -3.25 C 8.398438 -2.8125 8.863281 -2.46875 9.40625 -2.21875 C 9.957031 -1.96875 10.585938 -1.84375 11.296875 -1.84375 C 12.617188 -1.84375 13.722656 -2.253906 14.609375 -3.078125 C 15.503906 -3.898438 16.019531 -4.972656 16.15625 -6.296875 Z M 18.40625 -5.796875 "/></g></g></g><g fill="#000000" fill-opacity="1"><g transform="translate(136.762591, 206.205337)"><g><path d="M 18.203125 -9.078125 C 18.203125 -7.660156 17.976562 -6.375 17.53125 -5.21875 C 17.09375 -4.0625 16.472656 -3.0625 15.671875 -2.21875 C 14.867188 -1.375 13.898438 -0.71875 12.765625 -0.25 C 11.640625 0.21875 10.375 0.453125 8.96875 0.453125 C 8 0.453125 7.0625 0.273438 6.15625 -0.078125 C 5.257812 -0.429688 4.421875 -0.953125 3.640625 -1.640625 L 3.640625 7.28125 L 0.953125 7.28125 L 0.953125 -18.203125 L 3.640625 -18.203125 L 3.640625 -16.53125 C 5.285156 -17.9375 7.0625 -18.640625 8.96875 -18.640625 C 10.375 -18.640625 11.640625 -18.40625 12.765625 -17.9375 C 13.898438 -17.476562 14.867188 -16.820312 15.671875 -15.96875 C 16.472656 -15.113281 17.09375 -14.097656 17.53125 -12.921875 C 17.976562 -11.742188 18.203125 -10.460938 18.203125 -9.078125 Z M 15.53125 -9.078125 C 15.53125 -10.097656 15.390625 -11.050781 15.109375 -11.9375 C 14.828125 -12.832031 14.40625 -13.601562 13.84375 -14.25 C 13.289062 -14.90625 12.601562 -15.421875 11.78125 -15.796875 C 10.96875 -16.179688 10.03125 -16.375 8.96875 -16.375 C 7.945312 -16.375 7 -16.179688 6.125 -15.796875 C 5.25 -15.421875 4.421875 -14.8125 3.640625 -13.96875 L 3.640625 -4.203125 C 4.421875 -3.359375 5.25 -2.753906 6.125 -2.390625 C 7 -2.023438 7.945312 -1.84375 8.96875 -1.84375 C 10.03125 -1.84375 10.96875 -2.03125 11.78125 -2.40625 C 12.601562 -2.78125 13.289062 -3.289062 13.84375 -3.9375 C 14.40625 -4.59375 14.828125 -5.359375 15.109375 -6.234375 C 15.390625 -7.117188 15.53125 -8.066406 15.53125 -9.078125 Z M 15.53125 -9.078125 "/></g></g></g><g fill="#000000" fill-opacity="1"><g transform="translate(158.596395, 206.205337)"><g><path d="M 14.546875 0 L 3.640625 0 L 3.640625 -2.28125 L 7.75 -2.28125 L 7.75 -23.203125 L 3.640625 -23.203125 L 3.640625 -25.484375 L 10.453125 -25.484375 L 10.453125 -2.28125 L 14.546875 -2.28125 Z M 14.546875 0 "/></g></g></g><g fill="#000000" fill-opacity="1"><g transform="translate(180.430198, 206.205337)"><g><path d="M -0.046875 -4.921875 C -0.046875 -6.066406 0.238281 -7.023438 0.8125 -7.796875 C 1.394531 -8.578125 2.148438 -9.191406 3.078125 -9.640625 C 4.003906 -10.085938 5.070312 -10.410156 6.28125 -10.609375 C 7.488281 -10.816406 8.71875 -10.921875 9.96875 -10.921875 C 10.445312 -10.921875 10.878906 -10.910156 11.265625 -10.890625 C 11.648438 -10.878906 12.015625 -10.859375 12.359375 -10.828125 C 12.703125 -10.804688 13.046875 -10.773438 13.390625 -10.734375 C 13.742188 -10.703125 14.128906 -10.660156 14.546875 -10.609375 L 14.546875 -11.921875 C 14.546875 -12.804688 14.351562 -13.535156 13.96875 -14.109375 C 13.59375 -14.679688 13.125 -15.128906 12.5625 -15.453125 C 12 -15.785156 11.410156 -16.019531 10.796875 -16.15625 C 10.191406 -16.300781 9.671875 -16.375 9.234375 -16.375 C 7.878906 -16.375 6.628906 -16.191406 5.484375 -15.828125 C 4.335938 -15.460938 3.269531 -14.972656 2.28125 -14.359375 L 1.078125 -16.375 C 2.171875 -17.03125 3.394531 -17.570312 4.75 -18 C 6.113281 -18.425781 7.609375 -18.640625 9.234375 -18.640625 C 10.222656 -18.640625 11.195312 -18.507812 12.15625 -18.25 C 13.113281 -18 13.972656 -17.609375 14.734375 -17.078125 C 15.492188 -16.554688 16.101562 -15.863281 16.5625 -15 C 17.019531 -14.144531 17.25 -13.117188 17.25 -11.921875 L 17.25 0 L 14.546875 0 L 14.546875 -3.046875 C 14.078125 -2.460938 13.546875 -1.945312 12.953125 -1.5 C 12.367188 -1.0625 11.75 -0.703125 11.09375 -0.421875 C 10.445312 -0.140625 9.796875 0.0703125 9.140625 0.21875 C 8.492188 0.375 7.875 0.453125 7.28125 0.453125 C 4.875 0.453125 3.050781 -0.0078125 1.8125 -0.9375 C 0.570312 -1.863281 -0.046875 -3.191406 -0.046875 -4.921875 Z M 7.28125 -1.84375 C 8.40625 -1.84375 9.410156 -2.003906 10.296875 -2.328125 C 11.191406 -2.660156 11.953125 -3.070312 12.578125 -3.5625 C 13.203125 -4.0625 13.6875 -4.59375 14.03125 -5.15625 C 14.375 -5.71875 14.546875 -6.226562 14.546875 -6.6875 L 14.546875 -8.40625 C 13.679688 -8.53125 12.847656 -8.597656 12.046875 -8.609375 C 11.242188 -8.628906 10.550781 -8.640625 9.96875 -8.640625 C 9 -8.640625 8.066406 -8.570312 7.171875 -8.4375 C 6.285156 -8.3125 5.507812 -8.097656 4.84375 -7.796875 C 4.175781 -7.503906 3.640625 -7.125 3.234375 -6.65625 C 2.835938 -6.1875 2.640625 -5.609375 2.640625 -4.921875 C 2.640625 -4.148438 3.015625 -3.441406 3.765625 -2.796875 C 4.515625 -2.160156 5.6875 -1.84375 7.28125 -1.84375 Z M 7.28125 -1.84375 "/></g></g></g><g fill="#000000" fill-opacity="1"><g transform="translate(202.264013, 206.205337)"><g><path d="M 17.515625 -3.484375 C 16.753906 -2.285156 15.703125 -1.328125 14.359375 -0.609375 C 13.023438 0.0976562 11.441406 0.453125 9.609375 0.453125 C 8.191406 0.453125 6.890625 0.21875 5.703125 -0.25 C 4.515625 -0.71875 3.5 -1.375 2.65625 -2.21875 C 1.820312 -3.0625 1.171875 -4.0625 0.703125 -5.21875 C 0.234375 -6.375 0 -7.660156 0 -9.078125 C 0 -10.460938 0.210938 -11.742188 0.640625 -12.921875 C 1.078125 -14.097656 1.691406 -15.101562 2.484375 -15.9375 C 3.273438 -16.78125 4.242188 -17.441406 5.390625 -17.921875 C 6.546875 -18.398438 7.828125 -18.640625 9.234375 -18.640625 C 9.796875 -18.640625 10.367188 -18.570312 10.953125 -18.4375 C 11.546875 -18.3125 12.101562 -18.113281 12.625 -17.84375 C 13.144531 -17.570312 13.613281 -17.25 14.03125 -16.875 C 14.445312 -16.507812 14.757812 -16.070312 14.96875 -15.5625 L 14.96875 -18.203125 L 17.359375 -18.203125 L 17.359375 -10.921875 L 14.96875 -10.921875 C 14.96875 -11.722656 14.816406 -12.457031 14.515625 -13.125 C 14.222656 -13.789062 13.820312 -14.363281 13.3125 -14.84375 C 12.8125 -15.320312 12.207031 -15.695312 11.5 -15.96875 C 10.800781 -16.238281 10.046875 -16.375 9.234375 -16.375 C 8.140625 -16.375 7.1875 -16.179688 6.375 -15.796875 C 5.5625 -15.421875 4.878906 -14.90625 4.328125 -14.25 C 3.785156 -13.601562 3.375 -12.835938 3.09375 -11.953125 C 2.8125 -11.078125 2.671875 -10.117188 2.671875 -9.078125 C 2.671875 -8.035156 2.832031 -7.078125 3.15625 -6.203125 C 3.476562 -5.328125 3.941406 -4.566406 4.546875 -3.921875 C 5.148438 -3.285156 5.878906 -2.78125 6.734375 -2.40625 C 7.585938 -2.03125 8.546875 -1.84375 9.609375 -1.84375 C 10.960938 -1.84375 12.164062 -2.109375 13.21875 -2.640625 C 14.28125 -3.171875 15.085938 -3.878906 15.640625 -4.765625 Z M 17.515625 -3.484375 "/></g></g></g><g fill="#000000" fill-opacity="1"><g transform="translate(224.097828, 206.205337)"><g><path d="M 2.671875 -8.171875 C 2.867188 -6.242188 3.570312 -4.707031 4.78125 -3.5625 C 6 -2.414062 7.578125 -1.84375 9.515625 -1.84375 C 10.878906 -1.84375 12.09375 -2.117188 13.15625 -2.671875 C 14.226562 -3.234375 15.03125 -3.929688 15.5625 -4.765625 L 17.4375 -3.484375 C 16.53125 -2.203125 15.441406 -1.222656 14.171875 -0.546875 C 12.910156 0.117188 11.359375 0.453125 9.515625 0.453125 C 8.109375 0.453125 6.816406 0.21875 5.640625 -0.25 C 4.472656 -0.71875 3.460938 -1.375 2.609375 -2.21875 C 1.753906 -3.0625 1.09375 -4.0625 0.625 -5.21875 C 0.15625 -6.375 -0.078125 -7.660156 -0.078125 -9.078125 C -0.078125 -10.460938 0.128906 -11.738281 0.546875 -12.90625 C 0.972656 -14.070312 1.585938 -15.078125 2.390625 -15.921875 C 3.191406 -16.773438 4.164062 -17.441406 5.3125 -17.921875 C 6.457031 -18.398438 7.738281 -18.640625 9.15625 -18.640625 C 10.707031 -18.640625 12.0625 -18.378906 13.21875 -17.859375 C 14.382812 -17.335938 15.351562 -16.613281 16.125 -15.6875 C 16.894531 -14.769531 17.46875 -13.671875 17.84375 -12.390625 C 18.21875 -11.117188 18.40625 -9.710938 18.40625 -8.171875 Z M 15.5625 -10.453125 C 15.269531 -12.441406 14.550781 -13.925781 13.40625 -14.90625 C 12.257812 -15.882812 10.84375 -16.375 9.15625 -16.375 C 8.300781 -16.375 7.507812 -16.234375 6.78125 -15.953125 C 6.050781 -15.671875 5.40625 -15.269531 4.84375 -14.75 C 4.28125 -14.226562 3.8125 -13.597656 3.4375 -12.859375 C 3.0625 -12.128906 2.820312 -11.328125 2.71875 -10.453125 Z M 15.5625 -10.453125 "/></g></g></g></svg>